<?xml version="1.0" standalone="no"?>
<!DOCTYPE svg PUBLIC "-//W3C//DTD SVG 20010904//EN"
 "http://www.w3.org/TR/2001/REC-SVG-20010904/DTD/svg10.dtd">
<svg version="1.0" xmlns="http://www.w3.org/2000/svg"
 width="225.000000pt" height="225.000000pt" viewBox="0 0 225.000000 225.000000"
 preserveAspectRatio="xMidYMid meet">

<g transform="translate(0.000000,225.000000) scale(0.100000,-0.100000)"
fill="#000000" stroke="none">
<path d="M480 1120 l0 -700 604 2 c594 3 605 3 633 24 65 48 63 22 63 732 l0
642 -650 0 -650 0 0 -700z m568 -21 l3 -46 72 -6 c78 -7 107 -22 145 -78 20
-28 23 -43 19 -88 -3 -48 -9 -59 -43 -91 -55 -51 -101 -59 -162 -28 -80 40
-87 56 -90 234 l-3 155 28 -3 c26 -3 28 -7 31 -49z m-158 -78 c14 -10 36 -33
48 -52 20 -28 23 -43 20 -87 -8 -90 -76 -142 -190 -142 l-47 0 -3 -47 c-3 -44
-5 -48 -30 -51 l-28 -3 0 141 c0 185 16 224 107 255 44 15 87 10 123 -14z
m680 -6 c0 -25 -1 -25 -87 -25 -95 0 -117 -7 -111 -36 3 -17 15 -20 103 -24
108 -5 137 -17 155 -61 15 -35 3 -75 -28 -99 -23 -18 -38 -20 -141 -18 l-116
3 0 25 c0 25 0 25 115 30 115 5 115 5 115 30 0 25 -1 25 -108 30 -104 5 -110
6 -133 33 -26 31 -30 57 -12 90 21 41 39 46 146 47 l102 0 0 -25z"/>
<path d="M1050 919 c5 -62 9 -74 33 -95 74 -63 177 10 146 103 -14 44 -53 63
-126 63 l-58 0 5 -71z"/>
<path d="M749 961 c-26 -27 -29 -36 -29 -95 l0 -66 55 0 c71 0 110 20 124 63
14 42 3 76 -35 106 -38 30 -79 27 -115 -8z"/>
</g>
</svg>
